# xmcd CD database file
#
# Track frame offsets:
#	150
#	19972
#	39795
#	92918
#	109891
#	129714
#
# Disc length: 1953 seconds
#
# Revision: 0
# Processed by: cddbd v1.5.1PL2 Copyright (c) Steve Scherf et al.
# Submitted via: CDex 1.51
#
DISCID=49079f06
DTITLE=梨本悠里＆留桜良姫 - ぱぴぷぺぷにケット
DYEAR=2005
DGENRE=Pop
TTITLE0=ぱぴぷぺ　ぷにケット
TTITLE1=ぱぴぷぺ　ぷにケット
TTITLE2=ぱぴぷぺ　ぷにケット （ロングバージョン）
TTITLE3=はに☆れぼ 〜honey revolution〜
TTITLE4=ぱぴぷぺ　ぷにケット （カラオケバージョン）
TTITLE5=はに☆れぼ 〜honey revolution〜 （カラオケバージョン）
EXTD=YEAR: 2005
EXTT0=
EXTT1=
EXTT2=
EXTT3=
EXTT4=
EXTT5=
PLAYORDER=
